<?xml version="1.0" encoding="utf-8"?>

<!DOCTYPE svg PUBLIC "-//W3C//DTD SVG 1.1//EN" "http://www.w3.org/Graphics/SVG/1.1/DTD/svg11.dtd">
<svg version="1.1" id="Layer_1" xmlns="http://www.w3.org/2000/svg" xmlns:xlink="http://www.w3.org/1999/xlink" x="0px" y="0px"
	 viewBox="0 0 1890 1642.8799" enable-background="new 0 0 1890 1642.8799" xml:space="preserve">
<g>
	<path fill="#FE00FF" d="M1865.3351,1216.4924c-7.8892-80.5957-18.465-141.3859-28.7605-191.9985
		c-9.0369-44.4077-18.7896-84.0782-28.7604-120.142c-17.9196-64.7896-37.4943-121.3275-57.521-171.6865
		c-35.5946-89.4673-74.8419-164.8448-115.0419-229.4615c-70.7499-113.6587-149.6376-201.8021-230.0837-268.2629
		C1263.4417,117.9702,1099.4973,58.3088,945,58.2533c-154.4974,0.0554-318.4417,59.7169-460.1675,176.6877
		c-80.4462,66.4608-159.3339,154.6042-230.0838,268.2629c-40.2,64.6167-79.4473,139.9942-115.0419,229.4615
		c-20.0267,50.359-39.6014,106.8969-57.5209,171.6865c-9.9709,36.0637-19.7235,75.7343-28.7605,120.142
		c-10.2955,50.6127-20.8713,111.4028-28.7605,191.9985c0-12.2711,0-24.5422,0-36.8134
		c7.8892-80.5957,18.465-141.3859,28.7605-191.9985c9.037-44.4078,18.7896-84.0782,28.7605-120.142
		c17.9195-64.7896,37.4942-121.3274,57.5209-171.6865c35.5945-89.4673,74.8419-164.8448,115.0419-229.4615
		c70.7499-113.6587,149.6376-201.8021,230.0838-268.2628C626.5583,81.1568,790.5026,21.4954,945,21.4399
		c154.4973,0.0554,318.4417,59.7169,460.1676,176.6878c80.4462,66.4608,159.3339,154.6042,230.0837,268.2628
		c40.2,64.6167,79.4473,139.9942,115.0419,229.4615c20.0267,50.3591,39.6014,106.8969,57.521,171.6865
		c9.9708,36.0638,19.7235,75.7343,28.7604,120.142c10.2955,50.6127,20.8713,111.4028,28.7605,191.9985
		C1865.3351,1191.9502,1865.3351,1204.2213,1865.3351,1216.4924z"/>
	<path fill="#F60E00" d="M1865.3351,1253.3059c-7.8892-80.5957-18.465-141.3859-28.7605-191.9985
		c-9.0369-44.4078-18.7896-84.0783-28.7604-120.142c-17.9196-64.7896-37.4943-121.3275-57.521-171.6865
		c-35.5946-89.4673-74.8419-164.8448-115.0419-229.4615c-70.7499-113.6587-149.6376-201.8021-230.0837-268.2628
		C1263.4417,154.7836,1099.4973,95.1222,945,95.0667c-154.4974,0.0554-318.4417,59.7169-460.1675,176.6877
		c-80.4462,66.4608-159.3339,154.6042-230.0838,268.2628c-40.2,64.6168-79.4473,139.9943-115.0419,229.4615
		c-20.0267,50.359-39.6014,106.8969-57.5209,171.6865c-9.9709,36.0637-19.7235,75.7343-28.7605,120.142
		c-10.2955,50.6127-20.8713,111.4028-28.7605,191.9985c0-12.2711,0-24.5422,0-36.8135
		c7.8892-80.5957,18.465-141.3859,28.7605-191.9985c9.037-44.4077,18.7896-84.0782,28.7605-120.142
		c17.9195-64.7896,37.4942-121.3275,57.5209-171.6865c35.5945-89.4673,74.8419-164.8448,115.0419-229.4615
		c70.7499-113.6587,149.6376-201.8021,230.0838-268.2629C626.5583,117.9702,790.5026,58.3088,945,58.2533
		c154.4973,0.0554,318.4417,59.7169,460.1676,176.6877c80.4462,66.4608,159.3339,154.6042,230.0837,268.2629
		c40.2,64.6167,79.4473,139.9942,115.0419,229.4615c20.0267,50.359,39.6014,106.8969,57.521,171.6865
		c9.9708,36.0637,19.7235,75.7343,28.7604,120.142c10.2955,50.6127,20.8713,111.4028,28.7605,191.9985
		C1865.3351,1228.7637,1865.3351,1241.0348,1865.3351,1253.3059z"/>
	<path fill="#FFEE00" d="M1865.3351,1290.1193c-7.8892-80.5957-18.465-141.3859-28.7605-191.9985
		c-9.0369-44.4077-18.7896-84.0782-28.7604-120.142c-17.9196-64.7896-37.4943-121.3275-57.521-171.6865
		c-35.5946-89.4673-74.8419-164.8448-115.0419-229.4615c-70.7499-113.6587-149.6376-201.8021-230.0837-268.2628
		C1263.4417,191.597,1099.4973,131.9356,945,131.8801c-154.4974,0.0554-318.4417,59.7169-460.1675,176.6878
		c-80.4462,66.4608-159.3339,154.6042-230.0838,268.2628c-40.2,64.6167-79.4473,139.9942-115.0419,229.4615
		c-20.0267,50.359-39.6014,106.8969-57.5209,171.6865c-9.9709,36.0637-19.7235,75.7343-28.7605,120.142
		c-10.2955,50.6127-20.8713,111.4028-28.7605,191.9985c0-12.2711,0-24.5422,0-36.8134
		c7.8892-80.5957,18.465-141.3859,28.7605-191.9985c9.037-44.4078,18.7896-84.0783,28.7605-120.142
		c17.9195-64.7896,37.4942-121.3275,57.5209-171.6865c35.5945-89.4673,74.8419-164.8448,115.0419-229.4615
		c70.7499-113.6587,149.6376-201.8021,230.0838-268.2628C626.5583,154.7836,790.5026,95.1222,945,95.0667
		c154.4973,0.0554,318.4417,59.7169,460.1676,176.6877c80.4462,66.4608,159.3339,154.6042,230.0837,268.2628
		c40.2,64.6168,79.4473,139.9943,115.0419,229.4615c20.0267,50.359,39.6014,106.8969,57.521,171.6865
		c9.9708,36.0637,19.7235,75.7343,28.7604,120.142c10.2955,50.6127,20.8713,111.4028,28.7605,191.9985
		C1865.3351,1265.577,1865.3351,1277.8481,1865.3351,1290.1193z"/>
	<path fill="#68E616" d="M1865.3351,1326.9327c-7.8892-80.5957-18.465-141.3859-28.7605-191.9987
		c-9.0369-44.4077-18.7896-84.0782-28.7604-120.1419c-17.9196-64.7896-37.4943-121.3275-57.521-171.6865
		c-35.5946-89.4673-74.8419-164.8448-115.0419-229.4615c-70.7499-113.6587-149.6376-201.8021-230.0837-268.2629
		C1263.4417,228.4104,1099.4973,168.749,945,168.6935c-154.4974,0.0554-318.4417,59.7169-460.1675,176.6877
		c-80.4462,66.4608-159.3339,154.6042-230.0838,268.2629c-40.2,64.6167-79.4473,139.9942-115.0419,229.4615
		c-20.0267,50.359-39.6014,106.8969-57.5209,171.6865c-9.9709,36.0637-19.7235,75.7342-28.7605,120.1419
		c-10.2955,50.6128-20.8713,111.403-28.7605,191.9987c0-12.2711,0-24.5424,0-36.8135
		c7.8892-80.5957,18.465-141.3859,28.7605-191.9985c9.037-44.4077,18.7896-84.0782,28.7605-120.142
		c17.9195-64.7896,37.4942-121.3275,57.5209-171.6865c35.5945-89.4673,74.8419-164.8448,115.0419-229.4615
		c70.7499-113.6587,149.6376-201.8021,230.0838-268.2628C626.5583,191.597,790.5026,131.9356,945,131.8801
		c154.4973,0.0554,318.4417,59.7169,460.1676,176.6878c80.4462,66.4608,159.3339,154.6042,230.0837,268.2628
		c40.2,64.6167,79.4473,139.9942,115.0419,229.4615c20.0267,50.359,39.6014,106.8969,57.521,171.6865
		c9.9708,36.0637,19.7235,75.7343,28.7604,120.142c10.2955,50.6127,20.8713,111.4028,28.7605,191.9985
		C1865.3351,1302.3904,1865.3351,1314.6616,1865.3351,1326.9327z"/>
	<path fill="#0093FF" d="M1865.3351,1363.7461c-7.8892-80.5957-18.465-141.3859-28.7605-191.9985
		c-9.0369-44.4077-18.7896-84.0782-28.7604-120.142c-17.9196-64.7896-37.4943-121.3275-57.521-171.6865
		c-35.5946-89.4673-74.8419-164.8448-115.0419-229.4615c-70.7499-113.6587-149.6376-201.8021-230.0837-268.2629
		C1263.4417,265.2238,1099.4973,205.5624,945,205.5069c-154.4974,0.0554-318.4417,59.7169-460.1675,176.6878
		c-80.4462,66.4608-159.3339,154.6042-230.0838,268.2629c-40.2,64.6167-79.4473,139.9942-115.0419,229.4615
		c-20.0267,50.3591-39.6014,106.8969-57.5209,171.6865c-9.9709,36.0637-19.7235,75.7343-28.7605,120.142
		c-10.2955,50.6127-20.8713,111.4028-28.7605,191.9985c0-12.2711,0-24.5422,0-36.8134
		c7.8892-80.5957,18.465-141.3859,28.7605-191.9987c9.037-44.4077,18.7896-84.0782,28.7605-120.1419
		c17.9195-64.7896,37.4942-121.3275,57.5209-171.6865c35.5945-89.4673,74.8419-164.8448,115.0419-229.4615
		c70.7499-113.6587,149.6376-201.8021,230.0838-268.2629C626.5583,228.4104,790.5026,168.749,945,168.6935
		c154.4973,0.0554,318.4417,59.7169,460.1676,176.6877c80.4462,66.4608,159.3339,154.6042,230.0837,268.2629
		c40.2,64.6167,79.4473,139.9942,115.0419,229.4615c20.0267,50.359,39.6014,106.8969,57.521,171.6865
		c9.9708,36.0637,19.7235,75.7342,28.7604,120.1419c10.2955,50.6128,20.8713,111.403,28.7605,191.9987
		C1865.3351,1339.2039,1865.3351,1351.475,1865.3351,1363.7461z"/>
	<path fill="#00FFFF" d="M1865.3351,1400.5594c-7.8892-80.5957-18.465-141.3859-28.7605-191.9985
		c-9.0369-44.4077-18.7896-84.0782-28.7604-120.142c-17.9196-64.7896-37.4943-121.3275-57.521-171.6865
		c-35.5946-89.4673-74.8419-164.8448-115.0419-229.4615c-70.7499-113.6587-149.6376-201.8021-230.0837-268.2629
		C1263.4417,302.0372,1099.4973,242.3758,945,242.3204c-154.4974,0.0554-318.4417,59.7169-460.1675,176.6878
		c-80.4462,66.4608-159.3339,154.6042-230.0838,268.2629c-40.2,64.6167-79.4473,139.9942-115.0419,229.4615
		c-20.0267,50.359-39.6014,106.8969-57.5209,171.6865c-9.9709,36.0637-19.7235,75.7343-28.7605,120.142
		c-10.2955,50.6127-20.8713,111.4028-28.7605,191.9985c0-12.2711,0-24.5422,0-36.8134
		c7.8892-80.5957,18.465-141.3859,28.7605-191.9985c9.037-44.4077,18.7896-84.0782,28.7605-120.142
		c17.9195-64.7896,37.4942-121.3275,57.5209-171.6865c35.5945-89.4673,74.8419-164.8448,115.0419-229.4615
		c70.7499-113.6587,149.6376-201.8021,230.0838-268.2629C626.5583,265.2238,790.5026,205.5624,945,205.5069
		c154.4973,0.0554,318.4417,59.7169,460.1676,176.6878c80.4462,66.4608,159.3339,154.6042,230.0837,268.2629
		c40.2,64.6167,79.4473,139.9942,115.0419,229.4615c20.0267,50.3591,39.6014,106.8969,57.521,171.6865
		c9.9708,36.0637,19.7235,75.7343,28.7604,120.142c10.2955,50.6127,20.8713,111.4028,28.7605,191.9985
		C1865.3351,1376.0172,1865.3351,1388.2883,1865.3351,1400.5594z"/>
	<path fill="#FF0000" d="M1865.3351,1437.3729c-7.8892-80.5957-18.465-141.3859-28.7605-191.9985
		c-9.0369-44.4078-18.7896-84.0782-28.7604-120.142c-17.9196-64.7897-37.4943-121.3275-57.521-171.6865
		c-35.5946-89.4673-74.8419-164.8448-115.0419-229.4615c-70.7499-113.6586-149.6376-201.8021-230.0837-268.2628
		C1263.4417,338.8506,1099.4973,279.1892,945,279.1338c-154.4974,0.0554-318.4417,59.7169-460.1675,176.6877
		c-80.4462,66.4608-159.3339,154.6042-230.0838,268.2628c-40.2,64.6168-79.4473,139.9943-115.0419,229.4615
		c-20.0267,50.359-39.6014,106.8969-57.5209,171.6865c-9.9709,36.0637-19.7235,75.7341-28.7605,120.142
		c-10.2955,50.6127-20.8713,111.4028-28.7605,191.9985c0-12.2711,0-24.5422,0-36.8135
		c7.8892-80.5957,18.465-141.3859,28.7605-191.9985c9.037-44.4077,18.7896-84.0782,28.7605-120.142
		c17.9195-64.7896,37.4942-121.3275,57.5209-171.6865c35.5945-89.4673,74.8419-164.8448,115.0419-229.4615
		c70.7499-113.6587,149.6376-201.8021,230.0838-268.2629C626.5583,302.0372,790.5026,242.3758,945,242.3204
		c154.4973,0.0554,318.4417,59.7169,460.1676,176.6878c80.4462,66.4608,159.3339,154.6042,230.0837,268.2629
		c40.2,64.6167,79.4473,139.9942,115.0419,229.4615c20.0267,50.359,39.6014,106.8969,57.521,171.6865
		c9.9708,36.0637,19.7235,75.7343,28.7604,120.142c10.2955,50.6127,20.8713,111.4028,28.7605,191.9985
		C1865.3351,1412.8307,1865.3351,1425.1018,1865.3351,1437.3729z"/>
	<path fill="#FFFF00" d="M1865.3351,1474.1863c-7.8892-80.5957-18.465-141.3859-28.7605-191.9985
		c-9.0369-44.4077-18.7896-84.0782-28.7604-120.142c-17.9196-64.7896-37.4943-121.3274-57.521-171.6865
		c-35.5946-89.4673-74.8419-164.8448-115.0419-229.4615c-70.7499-113.6586-149.6376-201.8021-230.0837-268.2628
		C1263.4417,375.664,1099.4973,316.0026,945,315.9472c-154.4974,0.0554-318.4417,59.7169-460.1675,176.6877
		c-80.4462,66.4608-159.3339,154.6042-230.0838,268.2628c-40.2,64.6167-79.4473,139.9942-115.0419,229.4615
		c-20.0267,50.3591-39.6014,106.8969-57.5209,171.6865c-9.9709,36.0637-19.7235,75.7343-28.7605,120.142
		c-10.2955,50.6127-20.8713,111.4028-28.7605,191.9985c0-12.2711,0-24.5422,0-36.8134
		c7.8892-80.5957,18.465-141.3859,28.7605-191.9985c9.037-44.4078,18.7896-84.0782,28.7605-120.142
		c17.9195-64.7897,37.4942-121.3275,57.5209-171.6865c35.5945-89.4673,74.8419-164.8448,115.0419-229.4615
		c70.7499-113.6586,149.6376-201.8021,230.0838-268.2628C626.5583,338.8506,790.5026,279.1892,945,279.1338
		c154.4973,0.0554,318.4417,59.7169,460.1676,176.6877c80.4462,66.4608,159.3339,154.6042,230.0837,268.2628
		c40.2,64.6168,79.4473,139.9943,115.0419,229.4615c20.0267,50.359,39.6014,106.8969,57.521,171.6865
		c9.9708,36.0637,19.7235,75.7341,28.7604,120.142c10.2955,50.6127,20.8713,111.4028,28.7605,191.9985
		C1865.3351,1449.644,1865.3351,1461.9152,1865.3351,1474.1863z"/>
	<path fill="#0000FF" d="M1865.3351,1510.9998c-7.8892-80.5957-18.465-141.3859-28.7605-191.9987
		c-9.0369-44.4077-18.7896-84.0782-28.7604-120.142c-17.9196-64.7896-37.4943-121.3274-57.521-171.6864
		c-35.5946-89.4673-74.8419-164.8448-115.0419-229.4615c-70.7499-113.6587-149.6376-201.8021-230.0837-268.2629
		C1263.4417,412.4774,1099.4973,352.816,945,352.7606c-154.4974,0.0555-318.4417,59.7169-460.1675,176.6877
		c-80.4462,66.4608-159.3339,154.6042-230.0838,268.2629c-40.2,64.6167-79.4473,139.9942-115.0419,229.4615
		c-20.0267,50.359-39.6014,106.8969-57.5209,171.6864c-9.9709,36.0637-19.7235,75.7343-28.7605,120.142
		c-10.2955,50.6128-20.8713,111.403-28.7605,191.9987c0-12.2711,0-24.5424,0-36.8135
		c7.8892-80.5957,18.465-141.3859,28.7605-191.9985c9.037-44.4077,18.7896-84.0782,28.7605-120.142
		c17.9195-64.7896,37.4942-121.3274,57.5209-171.6865c35.5945-89.4673,74.8419-164.8448,115.0419-229.4615
		c70.7499-113.6586,149.6376-201.8021,230.0838-268.2628C626.5583,375.664,790.5026,316.0026,945,315.9472
		c154.4973,0.0554,318.4417,59.7169,460.1676,176.6877c80.4462,66.4608,159.3339,154.6042,230.0837,268.2628
		c40.2,64.6167,79.4473,139.9942,115.0419,229.4615c20.0267,50.3591,39.6014,106.8969,57.521,171.6865
		c9.9708,36.0637,19.7235,75.7343,28.7604,120.142c10.2955,50.6127,20.8713,111.4028,28.7605,191.9985
		C1865.3351,1486.4574,1865.3351,1498.7286,1865.3351,1510.9998z"/>
	<path fill="#C7B299" d="M1865.3351,1547.8131c-7.8892-80.5957-18.465-141.3859-28.7605-191.9985
		c-9.0369-44.4077-18.7896-84.0782-28.7604-120.142c-17.9196-64.7896-37.4943-121.3275-57.521-171.6865
		c-35.5946-89.4673-74.8419-164.8448-115.0419-229.4615c-70.7499-113.6587-149.6376-201.8021-230.0837-268.2629
		C1263.4417,449.2908,1099.4973,389.6294,945,389.574c-154.4974,0.0554-318.4417,59.7169-460.1675,176.6877
		c-80.4462,66.4608-159.3339,154.6042-230.0838,268.2629c-40.2,64.6167-79.4473,139.9942-115.0419,229.4615
		c-20.0267,50.359-39.6014,106.897-57.5209,171.6865c-9.9709,36.0637-19.7235,75.7343-28.7605,120.142
		c-10.2955,50.6127-20.8713,111.4028-28.7605,191.9985c0-12.2711,0-24.5422,0-36.8134
		c7.8892-80.5957,18.465-141.3859,28.7605-191.9987c9.037-44.4077,18.7896-84.0782,28.7605-120.142
		c17.9195-64.7896,37.4942-121.3274,57.5209-171.6864c35.5945-89.4673,74.8419-164.8448,115.0419-229.4615
		c70.7499-113.6587,149.6376-201.8021,230.0838-268.2629C626.5583,412.4774,790.5026,352.816,945,352.7606
		c154.4973,0.0555,318.4417,59.7169,460.1676,176.6877c80.4462,66.4608,159.3339,154.6042,230.0837,268.2629
		c40.2,64.6167,79.4473,139.9942,115.0419,229.4615c20.0267,50.359,39.6014,106.8969,57.521,171.6864
		c9.9708,36.0637,19.7235,75.7343,28.7604,120.142c10.2955,50.6128,20.8713,111.403,28.7605,191.9987
		C1865.3351,1523.2709,1865.3351,1535.542,1865.3351,1547.8131z"/>
	<path fill="#FC2323" d="M1865.3351,1584.6265c-7.8892-80.5957-18.465-141.3859-28.7605-191.9985
		c-9.0369-44.4077-18.7896-84.0782-28.7604-120.142c-17.9196-64.7896-37.4943-121.3274-57.521-171.6864
		c-35.5946-89.4673-74.8419-164.8448-115.0419-229.4615c-70.7499-113.6587-149.6376-201.8021-230.0837-268.2629
		C1263.4417,486.1042,1099.4973,426.4428,945,426.3874c-154.4974,0.0555-318.4417,59.7169-460.1675,176.6878
		c-80.4462,66.4608-159.3339,154.6042-230.0838,268.2629c-40.2,64.6167-79.4473,139.9942-115.0419,229.4615
		c-20.0267,50.359-39.6014,106.8969-57.5209,171.6864c-9.9709,36.0637-19.7235,75.7343-28.7605,120.142
		c-10.2955,50.6127-20.8713,111.4028-28.7605,191.9985c0-12.2711,0-24.5422,0-36.8134
		c7.8892-80.5957,18.465-141.3859,28.7605-191.9985c9.037-44.4077,18.7896-84.0782,28.7605-120.142
		c17.9195-64.7896,37.4942-121.3275,57.5209-171.6865c35.5945-89.4673,74.8419-164.8448,115.0419-229.4615
		c70.7499-113.6587,149.6376-201.8021,230.0838-268.2629C626.5583,449.2908,790.5026,389.6294,945,389.574
		c154.4973,0.0554,318.4417,59.7169,460.1676,176.6877c80.4462,66.4608,159.3339,154.6042,230.0837,268.2629
		c40.2,64.6167,79.4473,139.9942,115.0419,229.4615c20.0267,50.359,39.6014,106.897,57.521,171.6865
		c9.9708,36.0637,19.7235,75.7343,28.7604,120.142c10.2955,50.6127,20.8713,111.4028,28.7605,191.9985
		C1865.3351,1560.0842,1865.3351,1572.3553,1865.3351,1584.6265z"/>
	<path fill="#0076FF" d="M1865.3351,1621.4399c-7.8892-80.5957-18.465-141.3859-28.7605-191.9985
		c-9.0369-44.4078-18.7896-84.0782-28.7604-120.142c-17.9196-64.7897-37.4943-121.3275-57.521-171.6865
		c-35.5946-89.4673-74.8419-164.8448-115.0419-229.4615c-70.7499-113.6586-149.6376-201.8021-230.0837-268.2628
		C1263.4417,522.9177,1099.4973,463.2562,945,463.2008c-154.4974,0.0554-318.4417,59.7169-460.1675,176.6878
		c-80.4462,66.4608-159.3339,154.6042-230.0838,268.2628c-40.2,64.6168-79.4473,139.9943-115.0419,229.4615
		c-20.0267,50.359-39.6014,106.8969-57.5209,171.6865c-9.9709,36.0637-19.7235,75.7341-28.7605,120.142
		c-10.2955,50.6127-20.8713,111.4028-28.7605,191.9985c0-12.2711,0-24.5422,0-36.8135
		c7.8892-80.5957,18.465-141.3859,28.7605-191.9985c9.037-44.4077,18.7896-84.0782,28.7605-120.142
		c17.9195-64.7896,37.4942-121.3274,57.5209-171.6864c35.5945-89.4673,74.8419-164.8448,115.0419-229.4615
		c70.7499-113.6587,149.6376-201.8021,230.0838-268.2629C626.5583,486.1042,790.5026,426.4428,945,426.3874
		c154.4973,0.0555,318.4417,59.7169,460.1676,176.6878c80.4462,66.4608,159.3339,154.6042,230.0837,268.2629
		c40.2,64.6167,79.4473,139.9942,115.0419,229.4615c20.0267,50.359,39.6014,106.8969,57.521,171.6864
		c9.9708,36.0637,19.7235,75.7343,28.7604,120.142c10.2955,50.6127,20.8713,111.4028,28.7605,191.9985
		C1865.3351,1596.8977,1865.3351,1609.1688,1865.3351,1621.4399z"/>
</g>
</svg>
